<svg id="Layer_1" data-name="Layer 1" xmlns="http://www.w3.org/2000/svg" viewBox="0 0 299.41 44.78"><defs><style>.cls-1{fill:none;}.cls-2{fill:#b3b3b3;}</style></defs><rect id="backgroundrect" class="cls-1" x="2.21" y="1.39" width="295" height="42"/><g id="svg_1" data-name="svg 1"><path id="svg_2" data-name="svg 2" class="cls-2" d="M261.71,6.89c0-2.9.9-3.9,2.4-3.9s2.7.6,4.1,3.9l8.5,19.3v12.2c0,2.9-1.2,3.7-4.5,4.1v.8h15.7v-.8c-3.4-.4-4.5-1.3-4.5-4.1V26.19l8.2-18.6c1.6-3.6,3.2-4.4,5.6-4.8V2h-11.5v.8c3.9.4,5.3,1.5,4.2,4.1l-7.2,16.5-7.4-16.9c-1-2.3-.4-3,3.9-3.6v-.8h-24.7v.8c3.9.6,5.1,1.3,5.1,4.1v22.6l-18.1-27.5h-8.9v.8c2.9.4,3.8,1.3,3.8,4.1v31.5c0,2.9-.8,3.9-1.8,3.9s-1.4-.4-2.7-3.9l-13.4-36.6h-.8l-12.9,35c-1.4,3.9-3.6,5.2-5.8,5.7v.8h11.8v-.8c-4.1-.4-5.4-2-4.5-4.6l2.9-8h12.2l2.8,7.5c1.2,3.4.5,4.4-3,5v.8h22.4v-.8c-3.9-.6-5.1-1.3-5.1-4.1V10.19l21.9,33.2h1.3Zm-157.9,15.7c0-12.8,6.1-19.5,13.2-19.5,4.2,0,6.9.9,8.5,2.6a15.05,15.05,0,0,1,3.1,5.6h.8V2.69a60.21,60.21,0,0,0-11.5-1.3c-10.7,0-21.8,6.9-21.8,21.2s11.1,21.2,21.1,21.2a41.39,41.39,0,0,0,12-1.8l1.2-8.1-.7-.2a21.89,21.89,0,0,1-3.2,4.5,13.63,13.63,0,0,1-9.6,4C110.11,42.09,103.81,35.59,103.81,22.59Zm88.7,1.2a20.25,20.25,0,0,1-3.3-.3v-20h3.3c5.5,0,7.9,2.9,7.9,10.1s-2.5,10.2-7.9,10.2ZM64,2v9.9h.8c1.2-6.3,3.7-8.3,7.9-8.3h2v34.8c0,2.9-1.2,3.7-4.5,4.1v.8h15.7v-.8c-3.4-.4-4.5-1.3-4.5-4.1V3.49h2c4.2,0,6.7,2,7.9,8.3h.8V1.89Zm-12.5,41.8c6.8,0,14-3.9,14-11.9,0-4.7-2.5-8.6-6.9-11l-7.8-4.3c-4.1-2.3-5.3-4.4-5.3-7.4,0-3.4,2.5-6.1,7.2-6.1A7.45,7.45,0,0,1,58.11,5c1.2,1.2,2.4,3.2,3.5,6.8h.7V2.69a32.24,32.24,0,0,0-9.1-1.3c-6.7,0-11.7,4.2-11.7,11.3a12.75,12.75,0,0,0,6.6,11l7.2,4c4.1,2.3,5.4,4.5,5.4,7.8,0,3.9-4,6.7-8.4,6.7a9.63,9.63,0,0,1-7-2.7,13.75,13.75,0,0,1-3.1-5h4.7v-.8c-1.3-.3-2.1-.5-3.2-3.1l-9.2-21.9h-.8l-9,21.4c-1.2,2.9-2,3.4-3.4,3.6v.8h8v-.8c-2.9-.3-3.7-1.7-3-3.5l1.4-3.4h8.1l1.8,4.2c.8,1.9-.4,2.4-3.3,2.6v.8h6.4v7.9A42.83,42.83,0,0,0,51.51,43.79Zm101.6-.4L165,10.29l.9,28.2c.1,2.8-1,3.6-4.4,4v.8h32.8v-.8c-3.9-.6-5.1-1.3-5.1-4.1V25.09a24.06,24.06,0,0,0,3.6.3c7.9,0,14.7-2.9,14.7-11.7S200.71,2,192.81,2h-14.1v.8c2.9.4,3.8,1.3,3.8,4.1v31.5c0,2.9-1.2,4.1-4.5,4.1h-.1c-3.5,0-5-1.3-5.1-4L171.61,7c-.1-2.9.9-3.8,4-4.2V2h-9.7l-10.6,29.7L144.71,2h-10.4v.8c3.1.4,4.1,1.4,4,4.2l-1.1,30.2a5.08,5.08,0,0,1-4.6,5.3v.8h11v-.8c-2.8-.4-4.4-2.2-4.3-5.3l.9-27.5,12.1,33.6.8.1Zm-31.9-8.7c5.3,0,12.1-4.7,12.1-12.1s-6.7-12.1-12.1-12.1-12.1,4.7-12.1,12.1S115.81,34.69,121.21,34.69Zm0-22.5c3.4,0,5.7,2.8,5.7,10.4s-2.4,10.4-5.7,10.4-5.7-2.8-5.7-10.4S117.81,12.19,121.21,12.19Zm99.7,16.1h-11.1l5.5-15.2Zm-185.6-3.1h-6.8l3.4-8.3Zm-13,2.1h.8V14.89h-.8c-1.3,4.4-2.6,5.4-5,5.4h-4.6V3.49H20c4.2,0,6.7,2,7.9,8.3h.8V1.89H2.21v.8C5.11,3.09,6,4,6,6.79v31.5c0,2.9-.9,3.7-3.8,4.1v.8h15.6v-.8c-3.9-.6-5.1-1.3-5.1-4.1V21.79h4.6C19.61,21.89,21,22.89,22.31,27.29Z"/></g></svg>