<?xml version="1.0" encoding="UTF-8"?>
<svg xmlns="http://www.w3.org/2000/svg" xmlns:xlink="http://www.w3.org/1999/xlink" width="100px" height="38px" viewBox="0 0 99 38" version="1.1">
<g id="surface1">
<path style=" stroke:none;fill-rule:nonzero;fill:rgb(29.803922%,29.803922%,30.196078%);fill-opacity:1;" d="M 10.320312 5.550781 C 10.433594 5.457031 10.59375 5.4375 10.730469 5.5 C 10.863281 5.566406 10.949219 5.703125 10.953125 5.851562 L 10.953125 17.265625 C 10.953125 23.015625 13.503906 25.933594 14.9375 27.230469 C 15.058594 27.339844 15.097656 27.511719 15.03125 27.664062 C 14.964844 27.8125 14.808594 27.902344 14.648438 27.886719 C 13.414062 27.722656 12.195312 27.476562 10.996094 27.140625 L 10.996094 35.308594 C 10.996094 36.464844 11.535156 36.832031 12.707031 36.90625 C 12.996094 36.917969 13.222656 37.160156 13.226562 37.453125 C 13.226562 37.605469 13.164062 37.746094 13.054688 37.851562 C 12.945312 37.953125 12.800781 38.007812 12.652344 38 C 11.375 37.921875 8.28125 37.742188 6.523438 37.742188 C 4.765625 37.742188 1.875 37.921875 0.597656 38 C 0.449219 38.007812 0.304688 37.953125 0.195312 37.851562 C 0.0859375 37.746094 0.0234375 37.605469 0.0234375 37.453125 C 0.0273438 37.160156 0.253906 36.917969 0.546875 36.90625 C 1.847656 36.832031 2.265625 36.425781 2.265625 35.308594 L 2.265625 16.125 C 2.265625 13.386719 1.289062 12.410156 0.308594 12.347656 C 0.15625 12.335938 0.03125 12.222656 0.00390625 12.066406 C -0.0195312 11.914062 0.0625 11.761719 0.203125 11.703125 C 2.496094 10.722656 6.378906 8.726562 10.320312 5.550781 Z M 10.320312 5.550781 "/>
<path style=" stroke:none;fill-rule:nonzero;fill:rgb(29.803922%,29.803922%,30.196078%);fill-opacity:1;" d="M 28.261719 16.179688 C 28.261719 25.484375 22.363281 27.300781 19.527344 27.734375 C 19.324219 27.765625 19.125 27.664062 19.023438 27.480469 C 18.925781 27.300781 18.953125 27.074219 19.089844 26.921875 C 19.910156 25.980469 20.921875 24.472656 20.921875 21.722656 C 20.921875 12.105469 15.144531 10.398438 13.53125 10.109375 C 13.429688 10.089844 13.34375 10.027344 13.296875 9.933594 C 13.253906 9.839844 13.253906 9.730469 13.300781 9.640625 C 13.828125 8.574219 15.582031 5.808594 19.636719 5.808594 C 24.257812 5.808594 28.261719 9.691406 28.261719 16.179688 Z M 28.261719 16.179688 "/>
<path style=" stroke:none;fill-rule:nonzero;fill:rgb(29.803922%,29.803922%,30.196078%);fill-opacity:1;" d="M 44.457031 12.011719 C 44.457031 8.71875 42.96875 7.320312 41.757812 6.726562 C 41.625 6.660156 41.546875 6.511719 41.574219 6.363281 C 41.597656 6.210938 41.71875 6.097656 41.871094 6.078125 C 43.007812 5.941406 44.484375 5.785156 45.40625 5.785156 C 49.398438 5.785156 53.207031 7.207031 53.207031 11.707031 L 53.207031 21.097656 C 53.207031 24.449219 54.632812 24.378906 55.6875 24.019531 C 55.824219 23.972656 55.972656 24.023438 56.054688 24.136719 C 56.136719 24.253906 56.132812 24.414062 56.046875 24.527344 C 54.972656 25.914062 52.804688 28.109375 49.867188 28.109375 C 46.472656 28.109375 44.457031 25.117188 44.457031 19.226562 Z M 44.457031 12.011719 "/>
<path style=" stroke:none;fill-rule:nonzero;fill:rgb(29.803922%,29.803922%,30.196078%);fill-opacity:1;" d="M 39.28125 16.675781 C 39.324219 16.554688 39.300781 16.421875 39.214844 16.324219 C 39.128906 16.230469 38.996094 16.191406 38.875 16.222656 C 36.960938 16.738281 31.457031 18.632812 31.457031 23.429688 C 31.457031 26.585938 34.109375 28.40625 36.617188 28.40625 C 40.222656 28.40625 42.179688 25.410156 42.820312 24.207031 C 42.878906 24.101562 42.875 23.976562 42.820312 23.875 C 42.761719 23.773438 42.65625 23.707031 42.539062 23.699219 C 37.28125 23.386719 38.644531 18.460938 39.28125 16.675781 Z M 39.28125 16.675781 "/>
<path style=" stroke:none;fill-rule:nonzero;fill:rgb(29.803922%,29.803922%,30.196078%);fill-opacity:1;" d="M 78.488281 22.480469 C 78.894531 22.230469 79.355469 22.519531 79.085938 22.914062 C 77.585938 25.089844 74.488281 28.109375 68.839844 28.109375 C 62.953125 28.109375 58.042969 24.058594 58.042969 17.542969 C 58.042969 9.953125 63.929688 7.207031 66.496094 6.371094 C 66.652344 6.320312 66.824219 6.375 66.917969 6.511719 C 67.015625 6.644531 67.015625 6.824219 66.917969 6.957031 C 65.703125 8.636719 65.046875 10.660156 65.039062 12.738281 C 65.039062 19.335938 68.882812 23.484375 73.976562 23.484375 C 75.976562 23.484375 77.464844 23.109375 78.488281 22.480469 Z M 78.488281 22.480469 "/>
<path style=" stroke:none;fill-rule:nonzero;fill:rgb(29.803922%,29.803922%,30.196078%);fill-opacity:1;" d="M 82.292969 6.917969 C 82.292969 6.691406 82.449219 6.496094 82.667969 6.449219 C 84.109375 6.121094 89.40625 4.660156 92.734375 0.136719 C 92.820312 0.0195312 92.972656 -0.0273438 93.109375 0.015625 C 93.246094 0.0625 93.339844 0.191406 93.339844 0.339844 L 93.339844 6.160156 L 98.476562 6.160156 C 98.757812 6.160156 98.988281 6.394531 98.988281 6.679688 L 98.988281 7.046875 C 98.988281 7.335938 98.757812 7.566406 98.476562 7.566406 L 93.339844 7.566406 L 93.339844 17.664062 C 93.339844 23.246094 96.546875 23.167969 98.023438 22.839844 C 98.160156 22.808594 98.300781 22.859375 98.386719 22.972656 C 98.472656 23.085938 98.484375 23.238281 98.417969 23.363281 C 97.652344 24.859375 95.457031 28.074219 90.734375 28.074219 C 86.476562 28.074219 84.558594 25.171875 84.558594 20.742188 L 84.558594 11.070312 C 84.558594 7.859375 83.097656 7.679688 82.523438 7.328125 C 82.378906 7.242188 82.292969 7.085938 82.292969 6.917969 Z M 82.292969 6.917969 "/>
<path style=" stroke:none;fill-rule:nonzero;fill:rgb(29.803922%,29.803922%,30.196078%);fill-opacity:1;" d="M 70.683594 6.265625 C 70.578125 6.210938 70.527344 6.089844 70.554688 5.976562 C 70.582031 5.859375 70.683594 5.777344 70.800781 5.777344 C 73.507812 5.757812 79.808594 6.234375 79.808594 11.105469 C 79.808594 12.355469 78.726562 13.507812 77.160156 13.507812 C 72.980469 13.507812 74.042969 8.160156 70.683594 6.265625 Z M 70.683594 6.265625 "/>
<path style=" stroke:none;fill-rule:nonzero;fill:rgb(29.803922%,29.803922%,30.196078%);fill-opacity:1;" d="M 38.625 7.226562 C 38.671875 7.125 38.652344 7 38.574219 6.917969 C 38.496094 6.835938 38.378906 6.808594 38.273438 6.851562 C 36.480469 7.558594 32.15625 9.542969 32.15625 12.179688 C 32.15625 13.417969 32.914062 14.332031 34.269531 14.332031 C 38.617188 14.332031 37.515625 9.640625 38.625 7.226562 Z M 38.625 7.226562 "/>
</g>
</svg>
