<svg id="logo-primary" xmlns="http://www.w3.org/2000/svg" viewBox="0 0 552 128"><defs><style>.cls-1{fill:#b3b3b3;}</style></defs><path class="cls-1" d="M295.45,106.75h-3.6c-2.3,0-3.3-1-3.3-3.4V24.65c0-2.2,1-3.3,3.3-3.3h3.6c2.2,0,3.4.9,3.4,3.3v78.8c0,2.5-1.1,3.3-3.4,3.3m20-85.2c0-11-4.4-15.4-15.4-15.4h-12.8c-10.4,0-15.4,4.3-15.4,15.4v84.7c0,10.6,5.5,15.5,15.4,15.5h12.8c10.2,0,15.4-5,15.4-15.4Zm75.7,33.9h-7.1V21.35h7.1c2.3,0,3.3,1,3.3,3.3v27.5q-.15,3.3-3.3,3.3M402.05,69c6.4-1.5,8.9-5.7,8.9-13.5v-34c0-11.7-4.7-15.3-15.4-15.3h-28.2v115.6H384V70.35h1.7l10.5,51.4h17Zm78.5,16.5,5-54.4h.4l4.9,54.4Zm16.9-79.1h-22.1l-13.6,115.4h15.5l2.1-21.4h13.2l1.7,21.4h15.8Zm-435.2-.1H48.75l-15.3,39.8L18.05,6.25H4.55v115.5h16.6V54.05L32,83h3.1l10.7-28.8v67.6h16.6V6.25Zm39.9,100.5H83.05V70.25h14.8V55.35H83.05v-34h19.1V6.25H66.35v115.5h35.8ZM151,6.25h-15.8v51.4l-13.7-51.4h-15.1v115.5h15.7v-62l16,62h12.8V6.25ZM206.25,82c0-5.5-1.5-8.1-5.5-12.6l-18.7-21.2a10,10,0,0,1-2.8-7V24.65c0-2.1.9-3.3,3.3-3.3h3.9c2.1,0,3.1,1.2,3.1,3.4v14.6h16.6V21.45c0-11-4.8-15.3-15.3-15.3h-12.8c-9.2,0-15.4,4.3-15.4,14.8v26.8c0,5.7,2,8,5.1,11.5l19.1,21.8a9,9,0,0,1,2.7,6.9v15.4c0,2.4-1,3.3-3.3,3.3h-3.7c-2.2,0-3.3-1-3.3-3.3V89.05h-16.6v17.4c0,10.5,5,15.4,15.4,15.4h12.8c10.4,0,15.4-5.5,15.4-15.4Zm-52.7-75.7v26h4.3l4.9-26Zm113.9,0h-16.8v97.3c0,2.2-1,3.2-3.3,3.2h-3.7c-2.1,0-3.3-1-3.3-3.3V89.15h-16.7v17.1c0,10.7,5.1,15.5,15.4,15.5h13c10.4,0,15.4-4.8,15.4-15.5Zm95.8,0h-16.6v97.2c0,2.3-.9,3.3-3.3,3.3h-3.6c-2.3,0-3.3-1-3.3-3.2V6.25h-16.6v100.1c0,10.7,4.9,15.5,15.4,15.5h12.8c10.6,0,15.3-4.4,15.3-15.4V6.25Zm96.6,0h-15.8v51.4l-13.6-51.4h-15.1v115.5h15.7v-62l16,62h12.8Zm87.5,115.5H512V6.25h16.7v100.5h18.8v15Z"/></svg>