<svg id="Layer_1" data-name="Layer 1" xmlns="http://www.w3.org/2000/svg" viewBox="0 0 119 32"><defs><style>.cls-1{fill:#b3b3b3;fill-rule:evenodd;}</style></defs><path class="cls-1" d="M8.7,32c5.8,0,9.4-3.4,9.4-7.5,0-4.7-2.5-6.9-6.9-10.4-5.4-4.4-5.9-5.6-5.9-7,0-1.8,1.1-2.8,3.8-2.8,2.1,0,4.3,1.2,6.1,2.5l1.7-4.2A11.89,11.89,0,0,0,9,0C3.9,0,.5,2.9.5,7.1s2.1,6.1,7.2,10.3c4.5,3.7,5.7,4.7,5.7,7.2,0,1.8-1.5,3.1-4.7,3.1-2.5,0-5-1.6-6.8-3.2L0,28.7A12.39,12.39,0,0,0,8.7,32ZM85,.3H79.3V31.8h5V22.7h.8c7.8,0,12.6-5.4,12.6-11.4C97.7,4,92.6.3,85,.3ZM119,5V.3H103.6V31.8H119V27.2H108.6V18.1H118V13.5h-9.4V5ZM84.3,18.2V4.7H85c4,0,7.7,1.4,7.7,6.6s-3.6,7-7.7,7h-.7ZM65,22.1H57.5l3.8-11.9ZM38.4,13.5H28.5V.3h-5V31.8h5V18.2h9.9V31.8h5V.3h-5ZM68.1,31.8h5L62.6.3H60.2L49.7,31.8h4.7l1.7-5.2H66.5Z"/></svg>